<?xml version="1.0" encoding="utf-8"?>
<!-- Generator: Adobe Illustrator 27.0.0, SVG Export Plug-In . SVG Version: 6.00 Build 0)  -->
<svg version="1.1" id="Layer_1" xmlns="http://www.w3.org/2000/svg" xmlns:xlink="http://www.w3.org/1999/xlink" x="0px" y="0px"
	 viewBox="0 0 192 192" style="enable-background:new 0 0 192 192;" xml:space="preserve">
<path style="fill:none;stroke:#000000;" d="M60.3,122.2c-31,0-56.1-26.4-56.1-58.9S29.3,4.3,60.3,4.3h58.3c31,0,56.1,26.4,56.1,58.9s-25.1,58.9-56.1,58.9
	L60.3,122.2L60.3,122.2z"/>
<path style="fill:#3A3A3A;stroke:#000000;" d="M107,146.1H73.4c-31,0-56.1-25.9-56.1-57.8s25.1-57.8,56.1-57.8h58.3c31,0,56.1,25.9,56.1,57.8
	c0,15.5-5.9,30.5-16.6,41.4L116.5,186c-1,1.1-2.4,1.7-3.9,1.7c-3,0-5.5-2.6-5.5-5.7V146V146.1z"/>
<path style="fill:#2B2B2B;" d="M60,122.2h58.5c31.1,0,56.2-27,56.2-60.3c0-3.9-0.4-7.7-1-11.5c-10.2-12.2-25.1-19.8-41.7-19.8H73.5
	c-31.1,0-56.2,27-56.2,60.3c0,3.9,0.4,7.7,1,11.4C28.6,114.5,43.5,122.2,60,122.2C60,122.2,60,122.2,60,122.2z"/>
</svg>
